<svg width="64" height="66" viewBox="0 0 64 66" fill="none" xmlns="http://www.w3.org/2000/svg">
<path d="M30.8004 0C25.8083 0 13.4603 0.524462 6.89173 6.83032C2.16233 11.297 0.324151 18.1293 0.0614065 26.2744C-0.464082 39.1489 2.42405 47.2929 7.15345 51.4968C8.20442 52.2851 10.8339 54.3901 15.8261 55.9666V62.5352C15.8261 62.5352 15.825 65.1605 17.4015 65.686C17.6642 65.686 17.929 65.9478 18.1918 65.9478C19.7682 65.9478 21.0789 64.1075 22.9181 62.2683C24.4946 60.4291 25.8093 59.1174 26.5975 57.8037H30.277H32.381C37.3731 57.8037 49.7211 57.2792 56.2897 50.9734C61.0191 46.244 62.8583 39.4096 62.8583 30.739C63.121 29.4253 63.12 27.8509 63.12 26.2744C62.8573 16.5529 59.9691 9.9853 56.028 6.30689C54.4515 4.99317 47.6181 0 32.9044 0H30.8004ZM30.277 4.99317H32.1141H32.381H32.6427C46.5681 4.99317 51.823 9.46084 52.3485 9.98633C55.5014 12.6138 57.3407 18.3931 57.6034 26.0127V27.0647C57.8661 28.6412 57.8651 29.9508 57.8651 30.739C57.6024 38.6213 56.0249 43.8783 52.872 47.2939C47.3543 52.2861 35.7956 52.5488 32.6427 52.5488H30.8004H30.5387H30.277H27.6495L23.4467 57.2803L20.8192 60.1694L20.2907 60.9546C19.7652 61.4801 18.979 62.5341 18.4535 62.7969V62.2683V50.9734C13.1986 49.6597 11.0967 47.8194 10.5712 47.2939C6.89275 44.141 4.7908 36.5214 5.31629 26.2744V23.647C5.84178 17.3411 7.4203 13.1382 10.0477 10.248C15.5654 5.25591 27.1241 4.99317 30.277 4.99317ZM30.0153 10.7715C28.7015 10.7715 28.7015 12.6138 30.0153 12.6138C39.7368 12.6138 48.1456 19.1803 48.1456 31.5293C48.1456 32.843 49.9828 32.843 49.9828 31.5293C49.9828 18.1293 41.0505 10.5087 30.0153 10.7715ZM19.603 13.2039C19.0447 13.1382 18.4555 13.2665 17.9301 13.6606C15.3026 14.9744 12.6721 17.6059 13.4603 20.4961C13.4603 20.4961 13.9879 22.8577 16.8781 27.8499C18.4545 30.2145 19.7672 32.3186 21.0809 33.895C22.3947 35.7342 24.4956 37.8352 26.5975 39.4116C30.8014 42.8273 37.3731 46.244 40.2633 47.0322C42.8908 47.8205 45.7799 45.1899 47.0936 42.5625C47.6191 41.5115 47.3543 40.1999 46.3033 39.4116C44.7269 37.8352 42.1025 35.998 40.2633 34.947C38.9496 34.1588 37.3711 34.6822 36.8456 35.4705L35.5319 37.0459C35.0064 37.8341 33.6947 37.8362 33.6947 37.8362C25.0242 35.4715 22.6564 26.5361 22.6564 26.5361C22.6564 26.5361 22.6584 25.4872 23.4467 24.699L25.0221 23.3853C25.8103 22.8598 26.3338 21.2812 25.5455 19.9675C25.02 19.1793 24.2349 17.6049 23.4467 16.8167C22.6584 15.7657 21.0809 13.9275 21.0809 13.9275C20.6868 13.5334 20.1613 13.2696 19.603 13.2039ZM31.8524 16.0264C30.5387 15.7636 30.277 17.8687 31.5907 17.8687C38.9475 18.3941 43.1535 23.3863 42.8908 29.6921C42.628 31.0059 44.7279 31.0059 44.7279 29.6921C44.9907 22.3353 40.2602 16.2891 31.8524 16.0264ZM32.6427 21.0195C31.329 20.7568 31.329 22.8567 32.6427 22.8567C35.7956 22.8567 37.369 24.6969 37.369 27.8499C37.6318 29.1636 39.473 29.1636 39.473 27.8499C39.2103 23.6459 36.8466 21.0195 32.6427 21.0195Z" fill="black"/>
</svg>
