<svg width="64" height="64" viewBox="0 0 64 64" fill="none" xmlns="http://www.w3.org/2000/svg">
<path d="M53.6661 9.17212C47.7627 3.25462 39.9009 0 31.5459 0C14.3006 0 0.267696 14.0329 0.267696 31.2782C0.267696 36.7871 1.7048 42.1692 4.43812 46.9173L0 63.12L16.5831 58.7664C21.148 61.2602 26.2906 62.5705 31.5318 62.5705H31.5459C48.7771 62.5705 63.12 48.5376 63.12 31.2923C63.12 22.9374 59.5695 15.0896 53.6661 9.17212ZM31.5459 57.3011C26.8683 57.3011 22.2892 56.0472 18.302 53.6802L17.358 53.1166L7.52368 55.6949L10.1443 46.1001L9.52436 45.1139C6.91784 40.9716 5.55118 36.1954 5.55118 31.2782C5.55118 16.9494 17.2171 5.28348 31.56 5.28348C38.506 5.28348 45.0294 7.98862 49.9324 12.9058C54.8355 17.8229 57.8506 24.3463 57.8365 31.2923C57.8365 45.6352 45.8747 57.3011 31.5459 57.3011ZM45.8043 37.8297C45.0294 37.4352 41.183 35.5473 40.4644 35.2937C39.7459 35.026 39.2246 34.8992 38.7033 35.6882C38.182 36.4772 36.6885 38.2242 36.2236 38.7596C35.7727 39.2809 35.3077 39.3514 34.5328 38.9569C29.9397 36.6603 26.9246 34.8569 23.8954 29.6579C23.0923 28.2772 24.6985 28.3758 26.192 25.3889C26.4456 24.8676 26.3188 24.4167 26.1215 24.0222C25.9243 23.6277 24.3604 19.7814 23.7123 18.2174C23.0782 16.6958 22.4301 16.9071 21.9511 16.879C21.5002 16.8508 20.9789 16.8508 20.4576 16.8508C19.9363 16.8508 19.091 17.048 18.3724 17.8229C17.6539 18.6119 15.6391 20.4999 15.6391 24.3463C15.6391 28.1927 18.4429 31.9122 18.8233 32.4335C19.2178 32.9548 24.3322 40.8448 32.1799 44.2404C37.1394 46.3819 39.0837 46.5651 41.5634 46.1988C43.0709 45.9733 46.1847 44.3108 46.8328 42.4792C47.4809 40.6476 47.4809 39.0837 47.2836 38.7596C47.1005 38.4074 46.5792 38.2101 45.8043 37.8297Z" fill="black" fill-opacity="0.96"/>
</svg>

