<svg width="64" height="64" viewBox="0 0 64 64" fill="none" xmlns="http://www.w3.org/2000/svg">
<path d="M31.567 15.3734C22.6113 15.3734 15.3875 22.5972 15.3875 31.553C15.3875 40.5087 22.6113 47.7325 31.567 47.7325C40.5228 47.7325 47.7466 40.5087 47.7466 31.553C47.7466 22.5972 40.5228 15.3734 31.567 15.3734ZM31.567 42.0718C25.7796 42.0718 21.0482 37.3545 21.0482 31.553C21.0482 25.7514 25.7655 21.0341 31.567 21.0341C37.3686 21.0341 42.0859 25.7514 42.0859 31.553C42.0859 37.3545 37.3545 42.0718 31.567 42.0718ZM52.1823 14.7116C52.1823 16.8097 50.4925 18.4854 48.4084 18.4854C46.3103 18.4854 44.6346 16.7956 44.6346 14.7116C44.6346 12.6275 46.3244 10.9377 48.4084 10.9377C50.4925 10.9377 52.1823 12.6275 52.1823 14.7116ZM62.8982 18.5417C62.6588 13.4865 61.5042 9.00859 57.8007 5.31926C54.1114 1.62992 49.6335 0.475248 44.5783 0.221782C39.3682 -0.0739275 23.7518 -0.0739275 18.5417 0.221782C13.5006 0.461167 9.02267 1.61584 5.31926 5.30518C1.61584 8.99451 0.475248 13.4724 0.221782 18.5276C-0.0739275 23.7378 -0.0739275 39.3541 0.221782 44.5642C0.461167 49.6194 1.61584 54.0973 5.31926 57.7867C9.02267 61.476 13.4865 62.6307 18.5417 62.8841C23.7518 63.1798 39.3682 63.1798 44.5783 62.8841C49.6335 62.6447 54.1114 61.4901 57.8007 57.7867C61.4901 54.0973 62.6448 49.6194 62.8982 44.5642C63.1939 39.3541 63.1939 23.7518 62.8982 18.5417ZM56.1673 50.1545C55.0689 52.9145 52.9427 55.0408 50.1686 56.1532C46.0146 57.8007 36.1576 57.4205 31.567 57.4205C26.9765 57.4205 17.1054 57.7867 12.9655 56.1532C10.2055 55.0549 8.07922 52.9286 6.96679 50.1545C5.31926 46.0005 5.69946 36.1435 5.69946 31.553C5.69946 26.9624 5.33334 17.0913 6.96679 12.9514C8.06514 10.1914 10.1914 8.06514 12.9655 6.9527C17.1195 5.30518 26.9765 5.68538 31.567 5.68538C36.1576 5.68538 46.0287 5.31926 50.1686 6.9527C52.9286 8.05106 55.0549 10.1774 56.1673 12.9514C57.8148 17.1054 57.4346 26.9624 57.4346 31.553C57.4346 36.1435 57.8148 46.0146 56.1673 50.1545Z" fill="black"/>
</svg>
